<svg width="668" height="836" viewBox="0 0 668 836" fill="none" xmlns="http://www.w3.org/2000/svg">
<rect width="668" height="836" rx="9" fill="#D90D32"/>
<rect x="80" y="140" width="508" height="552" rx="82" fill="white"/>
<path d="M385.633 333.315C384.067 333.315 382.624 332.315 382.073 330.85C381.509 329.35 381.967 327.609 383.203 326.587C384.382 325.614 386.073 325.439 387.422 326.157C388.839 326.911 389.652 328.546 389.383 330.131C389.076 331.94 387.475 333.315 385.633 333.315V333.315Z" fill="#D90D32"/>
<path d="M401.408 274.148C394.08 269.969 383.875 266.547 371.77 264.196C371.134 253.611 369.767 243.285 367.815 234.623C364.383 219.4 359.8 212 353.802 212C347.804 212 343.22 219.4 339.788 234.623C338.057 242.303 336.787 251.29 336.077 260.607C332.293 260.525 328.438 260.526 324.653 260.607C323.944 251.29 322.674 242.303 320.942 234.623C317.511 219.4 312.927 212 306.929 212C300.931 212 296.347 219.4 292.916 234.623C290.963 243.285 289.597 253.611 288.961 264.196C276.696 266.577 266.377 270.064 259.033 274.315C248.09 280.649 245.794 287.455 245.794 292.05C245.794 296.984 248.284 301.59 253.194 305.738C257.476 309.356 263.538 312.549 271.212 315.229C271.24 315.239 271.268 315.249 271.296 315.259V379.977C271.296 387.827 277.586 394.833 289.007 399.704C299.632 404.235 314.32 406.731 330.365 406.731C346.411 406.731 361.099 404.235 371.724 399.704C383.145 394.833 389.434 387.827 389.434 379.977V346.635C389.434 344.534 387.731 342.831 385.631 342.831C383.531 342.831 381.828 344.534 381.828 346.635V379.977C381.828 389.185 362.152 399.124 330.365 399.124C298.578 399.124 278.902 389.185 278.902 379.977V317.591C293.265 321.459 311.189 323.556 330.365 323.556C353.137 323.556 374.144 320.599 389.518 315.229C397.192 312.549 403.253 309.356 407.536 305.738C412.446 301.59 414.936 296.984 414.936 292.05C414.937 287.403 412.59 280.524 401.408 274.148V274.148ZM371.811 289.711C372.37 289.831 372.952 289.965 373.691 290.156C376.146 290.789 378.301 291.429 380.183 292.051C378.302 292.672 376.147 293.312 373.693 293.945C372.932 294.14 372.189 294.327 371.459 294.506C371.596 292.927 371.714 291.327 371.811 289.711V289.711ZM346.819 238.089C349.579 224.921 352.619 220.498 353.801 219.687C354.983 220.498 358.024 224.921 360.784 238.089C363.189 249.562 364.568 263.939 364.568 277.535C364.568 280 364.523 282.443 364.434 284.801C364.291 288.706 364.03 292.537 363.657 296.225C361.635 296.62 359.623 296.972 357.604 297.283V265.458C357.604 263.357 355.901 261.654 353.801 261.654C351.701 261.654 349.998 263.357 349.998 265.458V298.263C348.1 298.46 346.179 298.626 344.222 298.761C343.566 293.212 343.179 287.32 343.067 281.192C343.045 280.002 343.034 278.772 343.034 277.536C343.034 263.939 344.414 249.562 346.819 238.089V238.089ZM325.17 284.961C326.765 284.913 328.369 284.887 330.365 284.887C332.362 284.887 333.965 284.913 335.561 284.961C335.737 289.855 336.087 294.595 336.607 299.127C334.578 299.185 332.491 299.214 330.365 299.214C328.239 299.214 326.152 299.185 324.123 299.127C324.644 294.594 324.994 289.853 325.17 284.961V284.961ZM335.628 268.206C335.498 271.257 335.43 274.316 335.428 277.347C333.882 277.304 332.302 277.281 330.365 277.281C328.429 277.281 326.849 277.304 325.303 277.347C325.3 274.316 325.233 271.257 325.103 268.206C328.592 268.135 332.139 268.135 335.628 268.206V268.206ZM299.947 238.089C302.707 224.921 305.747 220.498 306.929 219.687C308.111 220.498 311.152 224.921 313.912 238.088C316.317 249.562 317.696 263.939 317.696 277.535C317.696 278.758 317.685 279.988 317.662 281.193C317.551 287.317 317.163 293.21 316.508 298.76C314.551 298.625 312.63 298.46 310.732 298.263V265.457C310.732 263.356 309.029 261.654 306.929 261.654C304.829 261.654 303.125 263.356 303.125 265.457V297.282C301.106 296.971 299.094 296.619 297.072 296.224C296.7 292.537 296.439 288.705 296.296 284.797C296.207 282.434 296.161 279.99 296.161 277.535C296.162 263.939 297.542 249.562 299.947 238.089V238.089ZM288.92 289.711C289.017 291.327 289.135 292.927 289.272 294.506C288.542 294.327 287.799 294.141 287.04 293.945C284.585 293.313 282.429 292.672 280.548 292.051C282.43 291.429 284.587 290.788 287.043 290.156C287.78 289.964 288.361 289.83 288.92 289.711V289.711ZM330.365 315.949C284.327 315.949 253.401 303.592 253.401 292.051C253.401 285.566 264.328 277.029 288.626 272.02C288.579 273.863 288.555 275.704 288.555 277.536C288.555 279.036 288.572 280.532 288.603 282.01C287.569 282.218 286.591 282.415 285.141 282.79C278.579 284.481 273.059 286.456 268.735 288.66C267.462 289.31 266.66 290.618 266.659 292.047C266.658 293.476 267.459 294.785 268.731 295.436C273.047 297.641 278.568 299.618 285.142 301.312C287.852 302.009 290.359 302.6 292.806 303.118C292.807 303.118 292.808 303.118 292.808 303.118C301.65 304.999 310.173 306.094 319.631 306.565H319.632C323.035 306.735 326.646 306.821 330.364 306.821C334.083 306.821 337.694 306.735 341.097 306.565H341.098C350.556 306.094 359.079 304.999 367.92 303.118C367.921 303.118 367.922 303.118 367.923 303.118C370.371 302.6 372.877 302.009 375.588 301.311C382.161 299.617 387.682 297.641 391.998 295.436C393.27 294.785 394.071 293.476 394.07 292.047C394.07 290.618 393.268 289.309 391.994 288.66C387.67 286.456 382.15 284.481 375.591 282.791C374.138 282.416 373.16 282.219 372.126 282.01C372.158 280.535 372.174 279.039 372.174 277.535C372.174 275.704 372.151 273.862 372.104 272.018C396.393 277.02 407.329 285.53 407.329 292.05C407.33 303.592 376.404 315.949 330.365 315.949V315.949Z" fill="#D90D32"/>
<path d="M256.927 355.08C256.696 355.08 256.464 355.059 256.234 355.016L249.241 353.719L242.247 355.016C241.222 355.206 240.162 354.967 239.318 354.353C238.474 353.74 237.919 352.807 237.783 351.772L236.856 344.721L233.461 338.471C232.963 337.554 232.864 336.473 233.186 335.481C233.508 334.489 234.224 333.672 235.166 333.223L241.586 330.162L246.481 325.002C247.199 324.245 248.197 323.817 249.24 323.817C250.283 323.817 251.281 324.245 252 325.002L256.894 330.162L263.314 333.223C264.256 333.672 264.972 334.488 265.294 335.481C265.617 336.473 265.517 337.554 265.019 338.471L261.625 344.721L260.697 351.772C260.561 352.807 260.006 353.74 259.162 354.353C258.508 354.829 257.724 355.08 256.927 355.08V355.08ZM249.241 346.048C249.473 346.048 249.705 346.069 249.934 346.111L253.679 346.806L254.175 343.03C254.236 342.567 254.382 342.12 254.604 341.71L256.422 338.364L252.984 336.725C252.564 336.524 252.183 336.248 251.862 335.909L249.241 333.146L246.619 335.909C246.298 336.247 245.918 336.524 245.497 336.725L242.059 338.364L243.877 341.71C244.1 342.12 244.245 342.567 244.306 343.03L244.802 346.806L248.547 346.111C248.776 346.069 249.008 346.048 249.241 346.048V346.048Z" fill="#D90D32"/>
<path d="M408.447 258.653C408.216 258.653 407.983 258.632 407.753 258.59L400.76 257.292L393.767 258.59C392.742 258.78 391.682 258.54 390.838 257.927C389.994 257.314 389.439 256.381 389.302 255.346L388.375 248.294L384.981 242.044C384.483 241.127 384.383 240.046 384.705 239.054C385.028 238.062 385.744 237.245 386.686 236.796L393.105 233.735L398 228.576C398.719 227.818 399.716 227.39 400.76 227.39C401.803 227.39 402.8 227.818 403.519 228.576L408.414 233.735L414.833 236.796C415.776 237.245 416.491 238.062 416.814 239.054C417.136 240.046 417.037 241.127 416.539 242.044L413.144 248.294L412.217 255.346C412.081 256.38 411.526 257.314 410.681 257.927C410.028 258.402 409.244 258.653 408.447 258.653V258.653ZM400.76 249.621C400.992 249.621 401.224 249.642 401.453 249.685L405.198 250.379L405.695 246.603C405.756 246.141 405.901 245.693 406.124 245.284L407.941 241.937L404.504 240.298C404.083 240.097 403.702 239.821 403.381 239.482L400.76 236.719L398.139 239.482C397.818 239.821 397.437 240.097 397.016 240.298L393.579 241.937L395.396 245.284C395.619 245.694 395.764 246.141 395.825 246.603L396.322 250.379L400.067 249.685C400.296 249.642 400.528 249.621 400.76 249.621V249.621Z" fill="#D90D32"/>
<path d="M166.98 532.863L167.965 539.613L169.406 533.531L179.531 497.812H185.227L195.105 533.531L196.512 539.719L197.602 532.828L205.547 497.812H212.332L199.922 549H193.77L183.223 511.699L182.414 507.797L181.605 511.699L170.672 549H164.52L152.145 497.812H158.895L166.98 532.863ZM225.902 549H219.398V510.961H225.902V549ZM218.871 500.871C218.871 499.816 219.188 498.926 219.82 498.199C220.477 497.473 221.438 497.109 222.703 497.109C223.969 497.109 224.93 497.473 225.586 498.199C226.242 498.926 226.57 499.816 226.57 500.871C226.57 501.926 226.242 502.805 225.586 503.508C224.93 504.211 223.969 504.562 222.703 504.562C221.438 504.562 220.477 504.211 219.82 503.508C219.188 502.805 218.871 501.926 218.871 500.871ZM243.41 549H236.906V495H243.41V549ZM252.27 529.664C252.27 523.828 253.652 519.141 256.418 515.602C259.184 512.039 262.805 510.258 267.281 510.258C271.734 510.258 275.262 511.781 277.863 514.828V495H284.367V549H278.391L278.074 544.922C275.473 548.109 271.852 549.703 267.211 549.703C262.805 549.703 259.207 547.898 256.418 544.289C253.652 540.68 252.27 535.969 252.27 530.156V529.664ZM258.773 530.402C258.773 534.715 259.664 538.09 261.445 540.527C263.227 542.965 265.688 544.184 268.828 544.184C272.953 544.184 275.965 542.332 277.863 538.629V521.156C275.918 517.57 272.93 515.777 268.898 515.777C265.711 515.777 263.227 517.008 261.445 519.469C259.664 521.93 258.773 525.574 258.773 530.402ZM351.023 532.758C350.391 538.172 348.387 542.355 345.012 545.309C341.66 548.238 337.195 549.703 331.617 549.703C325.57 549.703 320.719 547.535 317.062 543.199C313.43 538.863 311.613 533.062 311.613 525.797V520.875C311.613 516.117 312.457 511.934 314.145 508.324C315.855 504.715 318.27 501.949 321.387 500.027C324.504 498.082 328.113 497.109 332.215 497.109C337.652 497.109 342.012 498.633 345.293 501.68C348.574 504.703 350.484 508.898 351.023 514.266H344.238C343.652 510.188 342.375 507.234 340.406 505.406C338.461 503.578 335.73 502.664 332.215 502.664C327.902 502.664 324.516 504.258 322.055 507.445C319.617 510.633 318.398 515.168 318.398 521.051V526.008C318.398 531.562 319.559 535.98 321.879 539.262C324.199 542.543 327.445 544.184 331.617 544.184C335.367 544.184 338.238 543.34 340.23 541.652C342.246 539.941 343.582 536.977 344.238 532.758H351.023ZM366.316 549H359.812V510.961H366.316V549ZM359.285 500.871C359.285 499.816 359.602 498.926 360.234 498.199C360.891 497.473 361.852 497.109 363.117 497.109C364.383 497.109 365.344 497.473 366 498.199C366.656 498.926 366.984 499.816 366.984 500.871C366.984 501.926 366.656 502.805 366 503.508C365.344 504.211 364.383 504.562 363.117 504.562C361.852 504.562 360.891 504.211 360.234 503.508C359.602 502.805 359.285 501.926 359.285 500.871ZM395.145 516.797C394.16 516.633 393.094 516.551 391.945 516.551C387.68 516.551 384.785 518.367 383.262 522V549H376.758V510.961H383.086L383.191 515.355C385.324 511.957 388.348 510.258 392.262 510.258C393.527 510.258 394.488 510.422 395.145 510.75V516.797ZM415.711 544.395C418.031 544.395 420.059 543.691 421.793 542.285C423.527 540.879 424.488 539.121 424.676 537.012H430.828C430.711 539.191 429.961 541.266 428.578 543.234C427.195 545.203 425.344 546.773 423.023 547.945C420.727 549.117 418.289 549.703 415.711 549.703C410.531 549.703 406.406 547.98 403.336 544.535C400.289 541.066 398.766 536.332 398.766 530.332V529.242C398.766 525.539 399.445 522.246 400.805 519.363C402.164 516.48 404.109 514.242 406.641 512.648C409.195 511.055 412.207 510.258 415.676 510.258C419.941 510.258 423.48 511.535 426.293 514.09C429.129 516.645 430.641 519.961 430.828 524.039H424.676C424.488 521.578 423.551 519.562 421.863 517.992C420.199 516.398 418.137 515.602 415.676 515.602C412.371 515.602 409.805 516.797 407.977 519.188C406.172 521.555 405.27 524.988 405.27 529.488V530.719C405.27 535.102 406.172 538.477 407.977 540.844C409.781 543.211 412.359 544.395 415.711 544.395ZM461.625 545.238C459.094 548.215 455.379 549.703 450.48 549.703C446.426 549.703 443.332 548.531 441.199 546.188C439.09 543.82 438.023 540.328 438 535.711V510.961H444.504V535.535C444.504 541.301 446.848 544.184 451.535 544.184C456.504 544.184 459.809 542.332 461.449 538.629V510.961H467.953V549H461.766L461.625 545.238ZM500.016 538.91C500.016 537.152 499.348 535.793 498.012 534.832C496.699 533.848 494.391 533.004 491.086 532.301C487.805 531.598 485.191 530.754 483.246 529.77C481.324 528.785 479.895 527.613 478.957 526.254C478.043 524.895 477.586 523.277 477.586 521.402C477.586 518.285 478.898 515.648 481.523 513.492C484.172 511.336 487.547 510.258 491.648 510.258C495.961 510.258 499.453 511.371 502.125 513.598C504.82 515.824 506.168 518.672 506.168 522.141H499.629C499.629 520.359 498.867 518.824 497.344 517.535C495.844 516.246 493.945 515.602 491.648 515.602C489.281 515.602 487.43 516.117 486.094 517.148C484.758 518.18 484.09 519.527 484.09 521.191C484.09 522.762 484.711 523.945 485.953 524.742C487.195 525.539 489.434 526.301 492.668 527.027C495.926 527.754 498.562 528.621 500.578 529.629C502.594 530.637 504.082 531.855 505.043 533.285C506.027 534.691 506.52 536.414 506.52 538.453C506.52 541.852 505.16 544.582 502.441 546.645C499.723 548.684 496.195 549.703 491.859 549.703C488.812 549.703 486.117 549.164 483.773 548.086C481.43 547.008 479.59 545.508 478.254 543.586C476.941 541.641 476.285 539.543 476.285 537.293H482.789C482.906 539.473 483.773 541.207 485.391 542.496C487.031 543.762 489.188 544.395 491.859 544.395C494.32 544.395 496.289 543.902 497.766 542.918C499.266 541.91 500.016 540.574 500.016 538.91Z" fill="#D90D32"/>
</svg>
